<?xml version="1.0" standalone="no"?><!-- Generator: Gravit.io --><svg xmlns="http://www.w3.org/2000/svg" xmlns:xlink="http://www.w3.org/1999/xlink" style="isolation:isolate" viewBox="9 10.75 65 65" width="65" height="65"><g><path d=" M 41.5 10.75 C 23.582 10.75 9 25.332 9 43.25 C 9 57.424 18.128 69.503 30.805 73.933 C 30.985 74.06 31.2 74.14 31.427 74.143 C 34.679 75.208 38.079 75.751 41.5 75.75 C 59.418 75.75 74 61.168 74 43.25 C 74 25.332 59.418 10.75 41.5 10.75 Z  M 41.5 12.991 C 58.184 12.991 71.759 26.566 71.759 43.25 C 71.759 56.317 63.432 67.471 51.81 71.701 C 51.687 71.337 51.586 70.799 51.586 70.431 L 51.586 64.543 C 51.586 62.196 50.44 59.64 49.31 57.924 C 55.53 56.873 62.64 53.647 62.64 41.604 C 62.64 38.303 61.606 35.392 59.571 32.941 C 60.017 31.469 60.569 28.366 59.029 24.469 C 58.904 24.157 58.648 23.917 58.328 23.813 C 58.012 23.716 55.137 22.968 49.166 26.886 C 46.66 26.249 44.085 25.927 41.5 25.927 C 38.921 25.927 36.352 26.249 33.852 26.886 C 27.881 22.963 24.996 23.712 24.685 23.813 C 24.366 23.917 24.109 24.157 23.985 24.469 C 22.439 28.369 22.991 31.469 23.447 32.941 C 21.402 35.392 20.369 38.303 20.369 41.604 C 20.369 53.538 27.351 56.825 33.52 57.92 C 32.744 58.9 31.93 60.17 31.572 61.461 C 29.978 61.904 26.712 61.916 24.519 58.161 C 24.441 58.015 22.522 54.61 18.74 54.347 C 18.14 54.352 16.617 54.448 16.25 55.613 C 15.842 56.904 17.27 57.885 17.883 58.301 C 17.922 58.327 17.983 58.361 18.023 58.384 C 18.092 58.419 19.726 59.277 20.942 62.341 C 21.196 63.142 23.424 69.179 31.423 68.116 C 31.427 69 31.423 69.446 31.414 69.8 L 31.414 70.427 C 31.414 70.79 31.304 71.338 31.182 71.692 C 19.559 67.462 11.241 56.308 11.241 43.25 C 11.241 26.566 24.816 12.991 41.5 12.991 Z  M 41.229 16.358 C 36.845 16.402 32.544 17.564 28.734 19.733 C 28.476 19.879 28.286 20.122 28.207 20.408 C 28.128 20.693 28.167 20.999 28.314 21.256 C 28.46 21.516 28.704 21.706 28.991 21.785 C 29.278 21.864 29.584 21.825 29.843 21.677 C 34.511 19.027 39.942 18.045 45.243 18.893 C 45.536 18.94 45.836 18.869 46.077 18.694 C 46.317 18.52 46.479 18.257 46.525 17.964 C 46.622 17.353 46.207 16.779 45.597 16.677 C 44.153 16.447 42.691 16.34 41.229 16.358 L 41.229 16.358 Z  M 50.08 17.908 C 49.631 17.927 49.238 18.213 49.083 18.634 C 48.977 18.913 48.987 19.222 49.11 19.493 C 49.234 19.765 49.46 19.976 49.739 20.08 C 50.535 20.377 51.324 20.719 52.094 21.103 C 52.25 21.184 52.423 21.226 52.598 21.226 C 53.005 21.226 53.398 21.002 53.6 20.609 C 53.874 20.055 53.652 19.383 53.101 19.102 C 52.263 18.681 51.401 18.306 50.522 17.978 C 50.38 17.927 50.23 17.904 50.079 17.909 L 50.08 17.908 Z  M 57.172 25.932 C 58.376 29.473 57.553 32.04 57.256 32.766 C 57.093 33.168 57.177 33.629 57.47 33.947 C 59.409 36.071 60.395 38.645 60.395 41.604 C 60.395 52.964 53.662 55.245 47.069 55.975 C 46.625 56.023 46.252 56.33 46.12 56.756 C 45.988 57.182 46.121 57.646 46.46 57.937 C 47.344 58.694 49.345 61.982 49.345 64.543 L 49.345 70.431 C 49.345 70.454 49.349 71.429 49.67 72.379 C 47.011 73.128 44.262 73.508 41.5 73.509 C 38.664 73.509 35.922 73.105 33.319 72.374 C 33.521 71.744 33.633 71.088 33.651 70.427 L 33.655 69.827 C 33.66 69.319 33.669 68.631 33.655 66.78 C 33.652 66.442 33.498 66.123 33.235 65.909 C 32.97 65.699 32.624 65.618 32.294 65.69 C 24.768 67.331 23.14 61.899 23.078 61.671 C 23.066 61.632 23.052 61.597 23.039 61.558 C 21.963 58.825 20.544 57.433 19.699 56.804 C 21.525 57.447 22.545 59.229 22.57 59.268 C 25.535 64.341 30.429 64.474 32.989 63.326 C 33.342 63.17 33.589 62.842 33.642 62.46 C 33.869 60.857 35.63 58.739 36.519 57.959 C 36.852 57.667 36.981 57.205 36.847 56.782 C 36.718 56.359 36.35 56.052 35.91 56.002 C 29.335 55.254 22.611 52.955 22.611 41.604 C 22.611 38.65 23.595 36.071 25.544 33.947 C 25.837 33.628 25.919 33.167 25.753 32.766 C 25.456 32.039 24.628 29.482 25.828 25.936 C 26.782 25.967 29.106 26.374 33.021 29.031 C 33.292 29.216 33.637 29.272 33.953 29.184 C 36.296 28.532 38.909 28.182 41.5 28.169 C 44.1 28.182 46.713 28.532 49.06 29.184 C 49.377 29.272 49.716 29.215 49.988 29.031 C 53.924 26.361 56.248 25.962 57.172 25.932 L 57.172 25.932 Z  M 30.713 47.055 C 30.267 46.997 29.829 47.215 29.606 47.606 L 28.485 49.545 C 28.336 49.802 28.295 50.108 28.372 50.395 C 28.448 50.682 28.635 50.928 28.892 51.077 C 29.428 51.385 30.111 51.201 30.42 50.666 L 31.54 48.727 C 31.729 48.402 31.743 48.005 31.576 47.669 C 31.41 47.332 31.086 47.102 30.713 47.055 Z  M 52.287 47.055 C 51.914 47.103 51.59 47.335 51.424 47.672 C 51.258 48.008 51.271 48.406 51.46 48.731 L 52.58 50.67 C 52.728 50.927 52.973 51.115 53.259 51.191 C 53.546 51.267 53.851 51.226 54.108 51.077 C 54.365 50.929 54.553 50.685 54.629 50.398 C 54.705 50.111 54.664 49.806 54.515 49.549 L 53.394 47.611 C 53.17 47.22 52.734 47.001 52.287 47.055 Z  M 47.313 49.239 C 47.162 49.217 47.009 49.227 46.863 49.269 C 46.266 49.429 45.911 50.043 46.07 50.64 L 46.653 52.806 C 46.785 53.295 47.228 53.634 47.734 53.634 C 48.083 53.635 48.412 53.473 48.624 53.197 C 48.837 52.92 48.909 52.561 48.819 52.224 L 48.242 50.062 C 48.125 49.627 47.76 49.303 47.314 49.239 L 47.313 49.239 Z  M 35.691 49.239 C 35.244 49.301 34.876 49.625 34.758 50.062 L 34.181 52.229 C 34.023 52.826 34.377 53.438 34.973 53.598 C 35.069 53.624 35.168 53.636 35.267 53.634 C 35.756 53.634 36.211 53.306 36.347 52.806 L 36.93 50.64 C 37.027 50.276 36.936 49.888 36.686 49.607 C 36.437 49.325 36.063 49.187 35.69 49.239 L 35.691 49.239 Z  M 41.5 49.974 C 40.878 49.974 40.379 50.473 40.379 51.095 L 40.379 53.336 C 40.379 53.958 40.878 54.457 41.5 54.457 C 42.122 54.457 42.621 53.958 42.621 53.336 L 42.621 51.095 C 42.621 50.473 42.122 49.974 41.5 49.974 Z " fill="rgb(1,1,1)"/></g></svg>