<?xml version="1.0" standalone="no"?><!-- Generator: Gravit.io --><svg xmlns="http://www.w3.org/2000/svg" xmlns:xlink="http://www.w3.org/1999/xlink" style="isolation:isolate" viewBox="8.938 10.5 65.5 65.5" width="65.5" height="65.5"><g><path d=" M 41.688 10.75 C 23.77 10.75 9.188 25.332 9.188 43.25 C 9.188 57.424 18.316 69.503 30.993 73.933 C 31.172 74.06 31.387 74.14 31.615 74.143 C 34.866 75.208 38.266 75.751 41.688 75.75 C 59.605 75.75 74.188 61.168 74.188 43.25 C 74.188 25.332 59.605 10.75 41.688 10.75 Z  M 41.688 12.991 C 58.371 12.991 71.946 26.566 71.946 43.25 C 71.946 56.317 63.619 67.471 51.998 71.701 C 51.875 71.337 51.774 70.799 51.774 70.431 L 51.774 64.543 C 51.774 62.196 50.627 59.64 49.498 57.924 C 55.717 56.873 62.827 53.647 62.827 41.604 C 62.827 38.303 61.794 35.392 59.759 32.941 C 60.205 31.469 60.756 28.366 59.216 24.469 C 59.092 24.157 58.835 23.917 58.516 23.813 C 58.2 23.716 55.324 22.968 49.353 26.886 C 46.848 26.249 44.273 25.927 41.688 25.928 C 39.108 25.927 36.539 26.249 34.04 26.886 C 28.069 22.963 25.183 23.712 24.873 23.813 C 24.553 23.917 24.297 24.157 24.172 24.469 C 22.627 28.369 23.178 31.469 23.634 32.941 C 21.589 35.392 20.557 38.303 20.557 41.604 C 20.557 53.538 27.539 56.825 33.707 57.92 C 32.932 58.9 32.118 60.17 31.759 61.461 C 30.166 61.904 26.9 61.916 24.707 58.161 C 24.628 58.015 22.71 54.61 18.927 54.347 C 18.328 54.352 16.805 54.448 16.437 55.613 C 16.029 56.904 17.457 57.885 18.07 58.301 C 18.109 58.327 18.171 58.361 18.21 58.384 C 18.28 58.419 19.914 59.277 21.13 62.341 C 21.384 63.142 23.612 69.179 31.61 68.116 C 31.615 69 31.61 69.446 31.601 69.8 L 31.601 70.427 C 31.601 70.79 31.491 71.338 31.369 71.692 C 19.747 67.462 11.429 56.308 11.429 43.25 C 11.429 26.566 25.004 12.991 41.688 12.991 Z  M 41.416 16.358 C 37.032 16.402 32.732 17.564 28.922 19.733 C 28.663 19.879 28.474 20.122 28.395 20.408 C 28.316 20.693 28.354 20.999 28.501 21.256 C 28.648 21.516 28.891 21.706 29.178 21.785 C 29.465 21.864 29.772 21.825 30.03 21.677 C 34.699 19.027 40.13 18.045 45.431 18.893 C 45.724 18.94 46.024 18.869 46.264 18.694 C 46.505 18.52 46.666 18.257 46.713 17.964 C 46.809 17.353 46.395 16.779 45.785 16.677 C 44.34 16.447 42.879 16.34 41.416 16.358 L 41.416 16.358 Z  M 50.267 17.908 C 49.819 17.927 49.426 18.213 49.27 18.634 C 49.165 18.913 49.175 19.222 49.298 19.493 C 49.421 19.765 49.647 19.976 49.927 20.08 C 50.723 20.377 51.511 20.719 52.281 21.103 C 52.437 21.184 52.61 21.226 52.786 21.226 C 53.192 21.226 53.586 21.002 53.788 20.609 C 54.062 20.055 53.84 19.383 53.289 19.102 C 52.45 18.681 51.589 18.306 50.709 17.978 C 50.567 17.927 50.417 17.904 50.266 17.909 L 50.267 17.908 Z  M 57.359 25.932 C 58.564 29.473 57.74 32.04 57.443 32.766 C 57.281 33.168 57.365 33.629 57.657 33.947 C 59.596 36.071 60.582 38.645 60.582 41.604 C 60.582 52.964 53.849 55.245 47.256 55.975 C 46.813 56.023 46.44 56.33 46.307 56.756 C 46.175 57.182 46.309 57.646 46.648 57.937 C 47.532 58.694 49.532 61.982 49.532 64.543 L 49.532 70.431 C 49.532 70.454 49.537 71.429 49.857 72.379 C 47.199 73.128 44.45 73.508 41.688 73.509 C 38.851 73.509 36.11 73.105 33.506 72.374 C 33.708 71.744 33.82 71.088 33.838 70.427 L 33.843 69.827 C 33.847 69.319 33.856 68.631 33.843 66.78 C 33.839 66.442 33.685 66.123 33.422 65.909 C 33.157 65.699 32.812 65.618 32.481 65.69 C 24.956 67.331 23.327 61.899 23.266 61.671 C 23.253 61.632 23.24 61.597 23.226 61.558 C 22.151 58.825 20.732 57.433 19.887 56.804 C 21.712 57.447 22.732 59.229 22.758 59.268 C 25.722 64.341 30.616 64.474 33.177 63.326 C 33.53 63.17 33.776 62.842 33.829 62.46 C 34.057 60.857 35.817 58.739 36.706 57.959 C 37.039 57.667 37.168 57.205 37.034 56.782 C 36.905 56.359 36.537 56.052 36.097 56.002 C 29.522 55.254 22.798 52.955 22.798 41.604 C 22.798 38.65 23.782 36.071 25.731 33.947 C 26.025 33.628 26.106 33.167 25.941 32.766 C 25.644 32.039 24.816 29.482 26.016 25.936 C 26.969 25.967 29.294 26.374 33.208 29.031 C 33.48 29.216 33.825 29.272 34.141 29.184 C 36.483 28.532 39.096 28.182 41.688 28.169 C 44.287 28.182 46.901 28.532 49.248 29.184 C 49.565 29.272 49.904 29.215 50.176 29.031 C 54.111 26.361 56.436 25.962 57.359 25.932 L 57.359 25.932 Z  M 30.901 47.055 C 30.454 46.997 30.017 47.215 29.794 47.606 L 28.673 49.545 C 28.524 49.802 28.483 50.108 28.559 50.395 C 28.635 50.682 28.823 50.928 29.08 51.077 C 29.615 51.385 30.299 51.201 30.607 50.666 L 31.728 48.727 C 31.917 48.402 31.93 48.005 31.764 47.669 C 31.597 47.332 31.273 47.102 30.901 47.055 Z  M 52.474 47.055 C 52.102 47.103 51.778 47.335 51.612 47.672 C 51.445 48.008 51.459 48.406 51.647 48.731 L 52.768 50.67 C 52.916 50.927 53.16 51.115 53.447 51.191 C 53.734 51.267 54.039 51.226 54.295 51.077 C 54.553 50.929 54.74 50.685 54.817 50.398 C 54.893 50.111 54.852 49.806 54.702 49.549 L 53.581 47.611 C 53.357 47.22 52.921 47.001 52.474 47.055 Z  M 47.501 49.239 C 47.35 49.217 47.196 49.227 47.05 49.269 C 46.453 49.429 46.099 50.043 46.258 50.64 L 46.84 52.806 C 46.973 53.295 47.416 53.634 47.922 53.634 C 48.27 53.635 48.599 53.473 48.812 53.197 C 49.024 52.92 49.096 52.561 49.007 52.224 L 48.43 50.062 C 48.312 49.627 47.947 49.303 47.502 49.239 L 47.501 49.239 Z  M 35.879 49.239 C 35.431 49.301 35.064 49.625 34.945 50.062 L 34.368 52.229 C 34.21 52.826 34.564 53.438 35.161 53.598 C 35.256 53.624 35.355 53.636 35.454 53.634 C 35.944 53.634 36.399 53.306 36.535 52.806 L 37.117 50.64 C 37.215 50.276 37.123 49.888 36.874 49.607 C 36.624 49.325 36.25 49.187 35.878 49.239 L 35.879 49.239 Z  M 41.688 49.974 C 41.066 49.974 40.567 50.473 40.567 51.095 L 40.567 53.336 C 40.567 53.958 41.066 54.457 41.688 54.457 C 42.309 54.457 42.808 53.958 42.808 53.336 L 42.808 51.095 C 42.808 50.473 42.309 49.974 41.688 49.974 Z " fill="rgb(255,255,255)" vector-effect="non-scaling-stroke" stroke-width="0.5" stroke="rgb(0,0,0)" stroke-linejoin="miter" stroke-linecap="square" stroke-miterlimit="3"/></g></svg>