<?xml version="1.0" standalone="no"?><!-- Generator: Gravit.io --><svg xmlns="http://www.w3.org/2000/svg" xmlns:xlink="http://www.w3.org/1999/xlink" style="isolation:isolate" viewBox="107.072 164.64 113.616 63.744" width="113.616" height="63.744"><linearGradient id="_lgradient_0" x1="0" y1="0.5" x2="1" y2="0.5" gradientTransform="matrix(113.616,0,0,63.744,107.072,164.64)" gradientUnits="userSpaceOnUse"><stop offset="17.391304347826086%" stop-opacity="1" style="stop-color:rgb(213,17,37)"/><stop offset="100%" stop-opacity="1" style="stop-color:rgb(0,0,0)"/></linearGradient><path d=" M 146.816 195.936 L 146.816 195.936 Q 147.44 195.936 147.8 196.536 L 147.8 196.536 L 147.8 196.536 Q 148.16 197.136 148.16 198.048 L 148.16 198.048 L 148.16 198.048 Q 148.16 199.152 147.824 199.776 L 147.824 199.776 L 147.824 199.776 Q 147.488 200.4 146.768 200.88 L 146.768 200.88 L 146.768 200.88 Q 143.936 202.752 137.744 207.024 L 137.744 207.024 L 137.744 207.024 Q 135.872 216.96 132.896 222.672 L 132.896 222.672 L 132.896 222.672 Q 129.92 228.384 125.36 228.384 L 125.36 228.384 L 125.36 228.384 Q 122.912 228.384 121.376 226.872 L 121.376 226.872 L 121.376 226.872 Q 119.84 225.36 119.84 222.912 L 119.84 222.912 L 119.84 222.912 Q 119.84 220.656 120.848 218.352 L 120.848 218.352 L 120.848 218.352 Q 121.856 216.048 124.616 213.024 L 124.616 213.024 L 124.616 213.024 Q 127.376 210 132.416 206.112 L 132.416 206.112 L 132.56 205.2 L 132.56 205.2 Q 128.768 206.784 125.12 206.784 L 125.12 206.784 L 125.12 206.784 Q 119.744 206.784 115.664 204.696 L 115.664 204.696 L 115.664 204.696 Q 111.584 202.608 109.328 198.768 L 109.328 198.768 L 109.328 198.768 Q 107.072 194.928 107.072 189.84 L 107.072 189.84 L 107.072 189.84 Q 107.072 182.736 109.76 177.288 L 109.76 177.288 L 109.76 177.288 Q 112.448 171.84 117.176 168.84 L 117.176 168.84 L 117.176 168.84 Q 121.904 165.84 127.76 165.84 L 127.76 165.84 L 127.76 165.84 Q 133.376 165.84 136.184 168.456 L 136.184 168.456 L 136.184 168.456 Q 138.992 171.072 138.992 175.392 L 138.992 175.392 L 138.992 175.392 Q 138.992 178.224 137.96 179.928 L 137.96 179.928 L 137.96 179.928 Q 136.928 181.632 135.008 181.632 L 135.008 181.632 L 135.008 181.632 Q 133.712 181.632 132.92 181.008 L 132.92 181.008 L 132.92 181.008 Q 132.128 180.384 132.128 179.28 L 132.128 179.28 L 132.128 179.28 Q 132.128 178.8 132.32 177.648 L 132.32 177.648 L 132.32 177.648 Q 132.608 176.304 132.608 175.536 L 132.608 175.536 L 132.608 175.536 Q 132.608 173.52 131.384 172.416 L 131.384 172.416 L 131.384 172.416 Q 130.16 171.312 127.28 171.312 L 127.28 171.312 L 127.28 171.312 Q 123.776 171.312 120.776 173.328 L 120.776 173.328 L 120.776 173.328 Q 117.776 175.344 115.952 179.352 L 115.952 179.352 L 115.952 179.352 Q 114.128 183.36 114.128 188.976 L 114.128 188.976 L 114.128 188.976 Q 114.128 194.736 117.272 197.88 L 117.272 197.88 L 117.272 197.88 Q 120.416 201.024 126.368 201.024 L 126.368 201.024 L 126.368 201.024 Q 129.68 201.024 133.28 199.536 L 133.28 199.536 L 133.952 193.68 L 129.056 193.68 L 129.056 193.68 Q 127.712 193.68 126.992 193.032 L 126.992 193.032 L 126.992 193.032 Q 126.272 192.384 126.272 190.896 L 126.272 190.896 L 126.272 190.896 Q 126.272 189.552 126.992 188.784 L 126.992 188.784 L 126.992 188.784 Q 127.712 188.016 128.912 188.016 L 128.912 188.016 L 137.888 188.016 L 137.888 188.016 Q 138.944 188.016 139.64 188.712 L 139.64 188.712 L 139.64 188.712 Q 140.336 189.408 140.192 190.704 L 140.192 190.704 L 140.192 190.704 Q 140.048 192.24 139.232 197.664 L 139.232 197.664 L 138.704 201.312 L 138.704 201.312 Q 142.544 198.432 145.712 196.32 L 145.712 196.32 L 145.712 196.32 Q 146.336 195.936 146.816 195.936 L 146.816 195.936 L 146.816 195.936 Z  M 125.888 223.728 L 125.888 223.728 Q 127.136 223.728 128.624 220.896 L 128.624 220.896 L 128.624 220.896 Q 130.112 218.064 131.408 211.776 L 131.408 211.776 L 131.408 211.776 Q 127.76 214.896 126.152 217.416 L 126.152 217.416 L 126.152 217.416 Q 124.544 219.936 124.544 221.856 L 124.544 221.856 L 124.544 221.856 Q 124.544 223.728 125.888 223.728 L 125.888 223.728 L 125.888 223.728 Z  M 151.52 181.008 L 151.52 181.008 Q 149.504 181.008 148.496 180.072 L 148.496 180.072 L 148.496 180.072 Q 147.488 179.136 147.488 177.456 L 147.488 177.456 L 147.488 177.456 Q 147.488 175.776 148.808 174.648 L 148.808 174.648 L 148.808 174.648 Q 150.128 173.52 152.096 173.52 L 152.096 173.52 L 152.096 173.52 Q 153.872 173.52 154.976 174.384 L 154.976 174.384 L 154.976 174.384 Q 156.08 175.248 156.08 176.832 L 156.08 176.832 L 156.08 176.832 Q 156.08 178.752 154.832 179.88 L 154.832 179.88 L 154.832 179.88 Q 153.584 181.008 151.52 181.008 L 151.52 181.008 L 151.52 181.008 Z  M 151.136 206.784 L 151.136 206.784 Q 148.016 206.784 146.6 204.576 L 146.6 204.576 L 146.6 204.576 Q 145.184 202.368 145.184 198.72 L 145.184 198.72 L 145.184 198.72 Q 145.184 196.56 145.736 193.176 L 145.736 193.176 L 145.736 193.176 Q 146.288 189.792 147.152 186.864 L 147.152 186.864 L 147.152 186.864 Q 147.584 185.328 148.304 184.752 L 148.304 184.752 L 148.304 184.752 Q 149.024 184.176 150.608 184.176 L 150.608 184.176 L 150.608 184.176 Q 153.056 184.176 153.056 185.808 L 153.056 185.808 L 153.056 185.808 Q 153.056 187.008 152.144 191.376 L 152.144 191.376 L 152.144 191.376 Q 150.992 196.656 150.992 198.528 L 150.992 198.528 L 150.992 198.528 Q 150.992 199.968 151.376 200.736 L 151.376 200.736 L 151.376 200.736 Q 151.76 201.504 152.672 201.504 L 152.672 201.504 L 152.672 201.504 Q 153.536 201.504 154.832 200.304 L 154.832 200.304 L 154.832 200.304 Q 156.128 199.104 158.288 196.512 L 158.288 196.512 L 158.288 196.512 Q 158.864 195.84 159.584 195.84 L 159.584 195.84 L 159.584 195.84 Q 160.208 195.84 160.568 196.416 L 160.568 196.416 L 160.568 196.416 Q 160.928 196.992 160.928 198 L 160.928 198 L 160.928 198 Q 160.928 199.92 160.016 200.976 L 160.016 200.976 L 160.016 200.976 Q 155.264 206.784 151.136 206.784 L 151.136 206.784 L 151.136 206.784 Z  M 178.448 195.84 L 178.448 195.84 Q 179.072 195.84 179.432 196.416 L 179.432 196.416 L 179.432 196.416 Q 179.792 196.992 179.792 198 L 179.792 198 L 179.792 198 Q 179.792 199.92 178.88 200.976 L 178.88 200.976 L 178.88 200.976 Q 176.816 203.52 174.368 205.152 L 174.368 205.152 L 174.368 205.152 Q 171.92 206.784 168.752 206.784 L 168.752 206.784 L 168.752 206.784 Q 158.96 206.784 158.96 193.008 L 158.96 193.008 L 158.96 193.008 Q 158.96 190.896 159.104 188.736 L 159.104 188.736 L 157.232 188.736 L 157.232 188.736 Q 155.792 188.736 155.288 188.208 L 155.288 188.208 L 155.288 188.208 Q 154.784 187.68 154.784 186.528 L 154.784 186.528 L 154.784 186.528 Q 154.784 183.84 156.944 183.84 L 156.944 183.84 L 159.68 183.84 L 159.68 183.84 Q 160.496 178.56 162.176 174.192 L 162.176 174.192 L 162.176 174.192 Q 163.856 169.824 166.232 167.232 L 166.232 167.232 L 166.232 167.232 Q 168.608 164.64 171.344 164.64 L 171.344 164.64 L 171.344 164.64 Q 173.36 164.64 174.512 166.416 L 174.512 166.416 L 174.512 166.416 Q 175.664 168.192 175.664 170.88 L 175.664 170.88 L 175.664 170.88 Q 175.664 178.32 169.424 183.84 L 169.424 183.84 L 174.8 183.84 L 174.8 183.84 Q 175.568 183.84 175.904 184.176 L 175.904 184.176 L 175.904 184.176 Q 176.24 184.512 176.24 185.424 L 176.24 185.424 L 176.24 185.424 Q 176.24 188.736 170.816 188.736 L 170.816 188.736 L 164.96 188.736 L 164.96 188.736 Q 164.864 191.136 164.864 192.48 L 164.864 192.48 L 164.864 192.48 Q 164.864 197.472 166.04 199.488 L 166.04 199.488 L 166.04 199.488 Q 167.216 201.504 169.76 201.504 L 169.76 201.504 L 169.76 201.504 Q 171.824 201.504 173.408 200.256 L 173.408 200.256 L 173.408 200.256 Q 174.992 199.008 177.152 196.512 L 177.152 196.512 L 177.152 196.512 Q 177.728 195.84 178.448 195.84 L 178.448 195.84 L 178.448 195.84 Z  M 170.048 169.248 L 170.048 169.248 Q 169.328 169.248 168.44 171.048 L 168.44 171.048 L 168.44 171.048 Q 167.552 172.848 166.76 176.04 L 166.76 176.04 L 166.76 176.04 Q 165.968 179.232 165.44 183.12 L 165.44 183.12 L 165.44 183.12 Q 168.272 180.672 169.688 177.624 L 169.688 177.624 L 169.688 177.624 Q 171.104 174.576 171.104 172.08 L 171.104 172.08 L 171.104 172.08 Q 171.104 169.248 170.048 169.248 L 170.048 169.248 L 170.048 169.248 Z  M 197.312 195.84 L 197.312 195.84 Q 197.936 195.84 198.296 196.416 L 198.296 196.416 L 198.296 196.416 Q 198.656 196.992 198.656 198 L 198.656 198 L 198.656 198 Q 198.656 199.92 197.744 200.976 L 197.744 200.976 L 197.744 200.976 Q 195.68 203.52 193.232 205.152 L 193.232 205.152 L 193.232 205.152 Q 190.784 206.784 187.616 206.784 L 187.616 206.784 L 187.616 206.784 Q 177.824 206.784 177.824 193.008 L 177.824 193.008 L 177.824 193.008 Q 177.824 190.896 177.968 188.736 L 177.968 188.736 L 176.096 188.736 L 176.096 188.736 Q 174.656 188.736 174.152 188.208 L 174.152 188.208 L 174.152 188.208 Q 173.648 187.68 173.648 186.528 L 173.648 186.528 L 173.648 186.528 Q 173.648 183.84 175.808 183.84 L 175.808 183.84 L 178.544 183.84 L 178.544 183.84 Q 179.36 178.56 181.04 174.192 L 181.04 174.192 L 181.04 174.192 Q 182.72 169.824 185.096 167.232 L 185.096 167.232 L 185.096 167.232 Q 187.472 164.64 190.208 164.64 L 190.208 164.64 L 190.208 164.64 Q 192.224 164.64 193.376 166.416 L 193.376 166.416 L 193.376 166.416 Q 194.528 168.192 194.528 170.88 L 194.528 170.88 L 194.528 170.88 Q 194.528 178.32 188.288 183.84 L 188.288 183.84 L 193.664 183.84 L 193.664 183.84 Q 194.432 183.84 194.768 184.176 L 194.768 184.176 L 194.768 184.176 Q 195.104 184.512 195.104 185.424 L 195.104 185.424 L 195.104 185.424 Q 195.104 188.736 189.68 188.736 L 189.68 188.736 L 183.824 188.736 L 183.824 188.736 Q 183.728 191.136 183.728 192.48 L 183.728 192.48 L 183.728 192.48 Q 183.728 197.472 184.904 199.488 L 184.904 199.488 L 184.904 199.488 Q 186.08 201.504 188.624 201.504 L 188.624 201.504 L 188.624 201.504 Q 190.688 201.504 192.272 200.256 L 192.272 200.256 L 192.272 200.256 Q 193.856 199.008 196.016 196.512 L 196.016 196.512 L 196.016 196.512 Q 196.592 195.84 197.312 195.84 L 197.312 195.84 L 197.312 195.84 Z  M 188.912 169.248 L 188.912 169.248 Q 188.192 169.248 187.304 171.048 L 187.304 171.048 L 187.304 171.048 Q 186.416 172.848 185.624 176.04 L 185.624 176.04 L 185.624 176.04 Q 184.832 179.232 184.304 183.12 L 184.304 183.12 L 184.304 183.12 Q 187.136 180.672 188.552 177.624 L 188.552 177.624 L 188.552 177.624 Q 189.968 174.576 189.968 172.08 L 189.968 172.08 L 189.968 172.08 Q 189.968 169.248 188.912 169.248 L 188.912 169.248 L 188.912 169.248 Z  M 219.344 195.936 L 219.344 195.936 Q 219.968 195.936 220.328 196.536 L 220.328 196.536 L 220.328 196.536 Q 220.688 197.136 220.688 198.048 L 220.688 198.048 L 220.688 198.048 Q 220.688 199.152 220.352 199.776 L 220.352 199.776 L 220.352 199.776 Q 220.016 200.4 219.296 200.88 L 219.296 200.88 L 210.08 207.072 L 210.08 207.072 Q 208.256 217.008 205.304 222.696 L 205.304 222.696 L 205.304 222.696 Q 202.352 228.384 197.792 228.384 L 197.792 228.384 L 197.792 228.384 Q 195.344 228.384 193.808 226.872 L 193.808 226.872 L 193.808 226.872 Q 192.272 225.36 192.272 222.912 L 192.272 222.912 L 192.272 222.912 Q 192.272 220.656 193.304 218.304 L 193.304 218.304 L 193.304 218.304 Q 194.336 215.952 197.144 212.904 L 197.144 212.904 L 197.144 212.904 Q 199.952 209.856 205.088 205.92 L 205.088 205.92 L 205.232 204.816 L 205.232 204.816 Q 205.568 203.04 206 199.728 L 206 199.728 L 206 199.728 Q 205.04 203.184 203.312 204.984 L 203.312 204.984 L 203.312 204.984 Q 201.584 206.784 199.664 206.784 L 199.664 206.784 L 199.664 206.784 Q 197.504 206.784 196.136 204.792 L 196.136 204.792 L 196.136 204.792 Q 194.768 202.8 194.768 199.824 L 194.768 199.824 L 194.768 199.824 Q 194.768 196.224 195.248 193.224 L 195.248 193.224 L 195.248 193.224 Q 195.728 190.224 196.832 186.864 L 196.832 186.864 L 196.832 186.864 Q 197.312 185.424 198.176 184.8 L 198.176 184.8 L 198.176 184.8 Q 199.04 184.176 200.912 184.176 L 200.912 184.176 L 200.912 184.176 Q 201.968 184.176 202.376 184.512 L 202.376 184.512 L 202.376 184.512 Q 202.784 184.848 202.784 185.52 L 202.784 185.52 L 202.784 185.52 Q 202.784 185.904 202.256 188.112 L 202.256 188.112 L 202.256 188.112 Q 201.776 189.888 201.488 191.328 L 201.488 191.328 L 201.488 191.328 Q 201.104 193.296 200.816 195.096 L 200.816 195.096 L 200.816 195.096 Q 200.528 196.896 200.528 198.048 L 200.528 198.048 L 200.528 198.048 Q 200.528 199.872 201.536 199.872 L 201.536 199.872 L 201.536 199.872 Q 202.256 199.872 203.336 198.432 L 203.336 198.432 L 203.336 198.432 Q 204.416 196.992 205.64 194.064 L 205.64 194.064 L 205.64 194.064 Q 206.864 191.136 208.016 186.864 L 208.016 186.864 L 208.016 186.864 Q 208.4 185.424 209.192 184.8 L 209.192 184.8 L 209.192 184.8 Q 209.984 184.176 211.568 184.176 L 211.568 184.176 L 211.568 184.176 Q 212.672 184.176 213.104 184.464 L 213.104 184.464 L 213.104 184.464 Q 213.536 184.752 213.536 185.424 L 213.536 185.424 L 213.536 185.424 Q 213.536 186.624 212.288 193.68 L 212.288 193.68 L 211.04 201.408 L 211.04 201.408 Q 214.736 198.624 218.24 196.32 L 218.24 196.32 L 218.24 196.32 Q 218.864 195.936 219.344 195.936 L 219.344 195.936 L 219.344 195.936 Z  M 198.32 223.728 L 198.32 223.728 Q 199.52 223.728 201.008 220.944 L 201.008 220.944 L 201.008 220.944 Q 202.496 218.16 203.984 211.68 L 203.984 211.68 L 203.984 211.68 Q 200.288 214.8 198.632 217.368 L 198.632 217.368 L 198.632 217.368 Q 196.976 219.936 196.976 221.856 L 196.976 221.856 L 196.976 221.856 Q 196.976 222.672 197.288 223.2 L 197.288 223.2 L 197.288 223.2 Q 197.6 223.728 198.32 223.728 L 198.32 223.728 L 198.32 223.728 Z " fill-rule="evenodd" fill="url(#_lgradient_0)"/></svg>